# xmcd
#
# Track frame offsets: 
#        150
#        16881
#        32758
#        50815
#        77995
#        91768
#        108930
#        127043
#        146594
#        160836
#        179476
#
# Disc length: 2607 seconds
#
# Revision: 2
# Processed by: cddbd v1.5.2PL0 Copyright (c) Steve Scherf et al.
# Submitted via: ExactAudioCopy v0.95b4
#
DISCID=8f0a2d0b
DTITLE=John Anderson - Easy Money
DYEAR=2006
DGENRE=
TTITLE0=Easy Money
TTITLE1=A woman knows
TTITLE2=Funky Country
TTITLE3=Bonnie Blue
TTITLE4=If Her Lovin' Don't Kill Me
TTITLE5=Something to Drink About
TTITLE6=Weeds
TTITLE7=You Already Know My Love
TTITLE8=Brown Liquor
TTITLE9=I Can't Make Her Cry Any More
TTITLE10=Willie's Guitar
EXTD=
EXTT0=
EXTT1=
EXTT2=
EXTT3=
EXTT4=
EXTT5=
EXTT6=
EXTT7=
EXTT8=
EXTT9=
EXTT10=
PLAYORDER=
